<svg xmlns="http://www.w3.org/2000/svg" viewBox="0 0 500 500">
  <path fill="#1e2a35" d="M250 0L62.5 125v250L250 500l187.5-125V125L250 0z"/>
  <path fill="#a8c5d6" d="M250 25L87.5 137.5v225L250 475l162.5-112.5v-225L250 25z"/>
  <g fill="#1e2a35">
    <path d="M140 200c0-22 18-40 40-40s40 18 40 40v10h-50v10c0 11 9 20 20 20 8 0 15-5 18-12h30c-5 23-25 40-48 40-28 0-50-22-50-50v-18zm50-10v-10c0-6-4-10-10-10s-10 4-10 10v10h20z"/>
    <path d="M230 170h30v20h-30v-20zm0 30h30v80h-30v-80z"/>
    <path d="M270 170h30v110h-30v-110z"/>
    <path d="M310 170h30l30 60 30-60h30v110h-30v-60l-20 40h-20l-20-40v60h-30v-110z"/>
    <path d="M150 320h30v20h-30v-20zm0 30h30v40h-30v-40z"/>
    <path d="M190 320h30v60h-30v-60z"/>
    <path d="M230 320h30v20h-30v-20zm0 30h30v30h-30v-30z"/>
    <path d="M270 320h30c17 0 30 13 30 30s-13 30-30 30h-30v-60zm30 40c6 0 10-4 10-10s-4-10-10-10h-10v20h10z"/>
    <path d="M340 320h30c17 0 30 13 30 30 0 13-8 24-20 28l20 22h-36l-14-20h-10v-60zm30 40c6 0 10-4 10-10s-4-10-10-10h-10v20h10z"/>
  </g>
</svg>